# xmcd
#
# Track frame offsets:
# 150
# 24345
# 50427
# 66180
# 94875
# 119917
# 150112
# 171027
# 190367
# 205412
# 231642
# 258585
# 281432
# 303570
#
# Disc length: 4358 seconds
#
# Revision: 1
# Processed by: cddbd v1.5.1PL0 Copyright (c) Steve Scherf et al.
# Submitted via: Easy CD Ripper v2.34
#
DISCID=cb11040e
DTITLE=Various Artist - Electric Kingdom MixDown
DYEAR=2001
DGENRE=Electronic
TTITLE0=Everybody Shake Your Body (remix) - Hardy Hard
TTITLE1=Global Players (My Name Is Techno) (Beroshima RMX) - Mr. X and Mr. Y
TTITLE2=Axel F. (Miami Burns) - DJ I.C.O.N. and Toxic Twin
TTITLE3=My Rhy 55 - Earl Kings
TTITLE4=Say Nothing - Hardy Hard
TTITLE5=Timesquare (Edlim RMX) - Gershwin
TTITLE6=Rock The East - Lexy and K- Paul
TTITLE7=Jam The System - DJ Icey
TTITLE8=One More Time (Paul Adam Walter Mix) - PAW
TTITLE9=Distortion - Toxic Twin
TTITLE10=G- Spot - DJ Shane
TTITLE11=Do It Alright - L.U.P.O.
TTITLE12=WB MixDOwn - WestBam
TTITLE13=Herbie (Hardy Hard RMX) - naked
EXTD=
EXTT0=
EXTT1=
EXTT2=
EXTT3=
EXTT4=
EXTT5=
EXTT6=
EXTT7=
EXTT8=
EXTT9=
EXTT10=
EXTT11=
EXTT12=
EXTT13=
PLAYORDER=
